<svg xmlns="http://www.w3.org/2000/svg" viewBox="0 0 612 568"><defs><style>.cls-1{fill:#414042;}.cls-2,.cls-5{fill:#dadbdc;}.cls-2{fill-rule:evenodd;}.cls-3{fill:#231f20;}.cls-10,.cls-4,.cls-8,.cls-9{fill:none;}.cls-10,.cls-4,.cls-9{stroke:#231f20;stroke-linecap:round;stroke-linejoin:round;}.cls-4{stroke-width:4.07px;}.cls-6{fill:#1d4078;}.cls-7{fill:#3c2415;}.cls-8{stroke:#dadbdc;}.cls-10,.cls-8{stroke-width:1.23px;}.cls-9{stroke-width:1.36px;}.cls-11{fill:#ed1c24;}.cls-12{fill:#ec2027;}</style></defs><title>fan_of_the_sport_logo</title><g id="seal"><g id="_Group_" data-name="&lt;Group&gt;"><path id="_Path_" data-name="&lt;Path&gt;" class="cls-1" d="M326.92,81.55l.07-.06,14-9.92c-3.91-5.46-11.35-3-14.54-1.58l-.75.62L312.9,81.15C319.13,84.58,325.44,82.19,326.92,81.55Z"/><path id="_Path_2" data-name="&lt;Path&gt;" class="cls-1" d="M310,80.41l.1-.08,13-11.18c-4.59-5.34-12.26-1.53-15,.09l-.33.32L296,81.29C302.41,84.13,308.49,81.2,310,80.41Z"/><path id="_Path_3" data-name="&lt;Path&gt;" class="cls-1" d="M376.44,94.15l.06,0,15.73-5.68c-2.38-6.47-10.48-6-13.8-5.46l-.64.29-15,6.72C368.22,95.38,375.59,94.29,376.44,94.15Z"/><path id="_Path_4" data-name="&lt;Path&gt;" class="cls-1" d="M276.08,82.88l.17-.21,10.9-13.28c-5.25-4.33-11.9.36-14.52,2.57l-.49.69-9.57,13.63C269.36,87.87,274.77,83.95,276.08,82.88Z"/><path id="_Path_5" data-name="&lt;Path&gt;" class="cls-1" d="M152.54,162.44c6.67-3.64,8-11.22,8.11-12.07l-.25-17.29c-6.82.25-8.85,8.48-9.39,11.84l.07.77Z"/><path id="_Path_6" data-name="&lt;Path&gt;" class="cls-1" d="M391.85,101.34l16.32-4.22c-1.81-6.65-9.85-6.91-13.24-6.71l-.8.27-15.45,5.26C383.58,101.78,390.9,101.41,391.85,101.34Z"/><path id="_Path_7" data-name="&lt;Path&gt;" class="cls-1" d="M360.21,88.42h0l15.45-7.21c-3-6.38-11.38-4.87-14.45-4.05l-.46.25-14.38,8.06C352,90.09,358.77,88.77,360.21,88.42Z"/><path id="_Path_8" data-name="&lt;Path&gt;" class="cls-1" d="M184.53,126.06l.05-.33,2.79-17.2c-6.9-1-10.3,7.25-11.32,10.29l0,.43L174.64,136C181.13,133.82,183.85,127.84,184.53,126.06Z"/><path id="_Path_9" data-name="&lt;Path&gt;" class="cls-1" d="M198.18,115.07l4.15-16.81c-6.68-1.54-10.73,6-12.08,9l-.1.57-2.85,16.57C194.58,122.7,197.78,116,198.18,115.07Z"/><path id="_Path_10" data-name="&lt;Path&gt;" class="cls-1" d="M172,137.89l0-.36,1.31-17.33c-6.9-.38-9.59,7.85-10.37,11.08v17.45C169.28,146,171.49,139.77,172,137.89Z"/><path id="_Path_11" data-name="&lt;Path&gt;" class="cls-1" d="M212.53,105.74l5.61-16.35c-6.36-2.13-11,4.65-12.71,7.65l-.22.81-4.33,16.27C208.32,113.08,212.09,106.53,212.53,105.74Z"/><path id="_Path_12" data-name="&lt;Path&gt;" class="cls-1" d="M243.22,91.5l.12-.2,8.42-15.1C245.9,73,240.25,78.57,238,81.26l-.41.88-7.11,15.15C237.35,97.65,242,92.87,243.22,91.5Z"/><path id="_Path_13" data-name="&lt;Path&gt;" class="cls-1" d="M259.71,86.2l.06-.09L269.33,72c-5.55-3.77-11.7,1.31-14.18,3.76l-.49.85L246.31,91C253.74,92.09,259.08,86.85,259.71,86.2Z"/><path id="_Path_14" data-name="&lt;Path&gt;" class="cls-1" d="M227.66,97.72l7-15.71c-6.19-2.68-11.42,3.65-13.36,6.45l-.29.79L215.31,105C222.84,104.66,227.17,98.45,227.66,97.72Z"/><path id="_Path_15" data-name="&lt;Path&gt;" class="cls-1" d="M343.86,84.11l14.67-8.5c-3.41-5.94-11.22-4-14.46-2.86l-.68.46-13.63,9.35C336,86.81,343,84.43,343.86,84.11Z"/><path id="_Path_16" data-name="&lt;Path&gt;" class="cls-1" d="M505,252.42l-12.67-10.68c-2.13,7.46,2.15,13.68,2.7,14.45L507.19,268c4.51-5.2.25-12.41-1.7-15.16Z"/><path id="_Path_17" data-name="&lt;Path&gt;" class="cls-1" d="M502.06,234.12l-13.52-9.41c-1.44,7.59,3.35,13.38,4,14.08l0,0,13.19,10.75c4.1-5.69-1-12.58-3.12-15.06Z"/><path id="_Path_18" data-name="&lt;Path&gt;" class="cls-1" d="M497.63,216.24l-14.28-8.14c-.78,7.76,4.55,13.05,5.19,13.65l.08.07,14,9.41c3.6-5.93-1.84-12.23-4.25-14.6Z"/><path id="_Path_19" data-name="&lt;Path&gt;" class="cls-1" d="M102.81,273.19l6.69-1.33L105.26,267A8.23,8.23,0,0,0,102.81,273.19Z"/><path id="_Path_20" data-name="&lt;Path&gt;" class="cls-1" d="M153.69,391.19a15.27,15.27,0,0,0-1-3.23q-4.19.51-8.35,1Z"/><path id="_Path_21" data-name="&lt;Path&gt;" class="cls-1" d="M506.15,270.81l-11.67-11.72a16.66,16.66,0,0,0-.08,11.14q6.56,1.22,13.06,2.54c-.26-.53-.52-1-.75-1.38Z"/><path id="_Path_22" data-name="&lt;Path&gt;" class="cls-1" d="M406.66,109.94l16.6-2.69c-1.29-6.87-9.46-7.8-12.74-7.89l-.64.15L394,103.33C398.33,109.5,405.57,109.91,406.66,109.94Z"/><path id="_Path_23" data-name="&lt;Path&gt;" class="cls-1" d="M491.68,198.7,478,192.5l-1.19-.52c-.14,7.85,5.61,12.66,6.3,13.19l14.84,8.12c3.17-6.5-3.35-12.46-5.8-14.39Z"/><path id="_Path_24" data-name="&lt;Path&gt;" class="cls-1" d="M434.73,131.92l16.48.74c.18-7.52-8.83-10.44-12.09-11.27l-.49,0-16.29.79C425.68,129.34,433.68,131.65,434.73,131.92Z"/><path id="_Path_25" data-name="&lt;Path&gt;" class="cls-1" d="M420.62,119.87l16.76-1.09c-.58-6.89-8.45-8.65-11.82-9.08l-.8.12-16.21,2.32C412.45,118.84,419.8,119.78,420.62,119.87Z"/><path id="_Path_26" data-name="&lt;Path&gt;" class="cls-1" d="M468.75,176.55c.57,7.75,6.73,12,7.43,12.49l2.88,1.3,12.61,5.48c2.56-6.65-4.3-12-7-13.76l-.57-.2Z"/><path id="_Path_27" data-name="&lt;Path&gt;" class="cls-1" d="M447.5,145.38l16.64,2.27c.77-8.42-10.75-12.13-12.05-12.52l-15.92-.71C438.71,141.83,446.35,144.95,447.5,145.38Z"/><path id="_Path_28" data-name="&lt;Path&gt;" class="cls-1" d="M458.24,159l.1,0,16.35,3.78c1.3-6.88-6-10.84-9-12.18l-.75-.12-16.07-2.45C450.63,155.4,457.08,158.51,458.24,159Z"/><path id="_Path_29" data-name="&lt;Path&gt;" class="cls-1" d="M467.76,173.6l.13,0,16,5.3c1.95-6.83-5.11-11.49-8-13.07l-.7-.17-15.76-3.88C460.57,169.2,466.55,172.92,467.76,173.6Z"/><path id="_Path_30" data-name="&lt;Path&gt;" class="cls-1" d="M293.18,80.67l12-12.22c-4.94-4.88-12.17-.59-14.88,1.34l-.41.48L279.19,83C286.34,85.44,292.48,81.18,293.18,80.67Z"/><path id="_Path_31" data-name="&lt;Path&gt;" class="cls-1" d="M351.23,466.27l-9.75,14.08c5.73,4.06,12.22-1.66,14.46-4l.27-.45,8.42-14.44C357.18,460.45,351.84,465.64,351.23,466.27Z"/><path id="_Path_32" data-name="&lt;Path&gt;" class="cls-1" d="M334.54,469.69l-10.88,13.17c5.36,4.45,12.25-.55,14.71-2.65l.36-.51,9.65-13.55C341,464.37,335.2,469.12,334.54,469.69Z"/><path id="_Path_33" data-name="&lt;Path&gt;" class="cls-1" d="M367.73,461l-.12.21-8.6,15c5.86,3.32,11.6-2.3,13.87-5l.4-.85,7.14-15.07C373.63,455,369,459.69,367.73,461Z"/><path id="_Path_34" data-name="&lt;Path&gt;" class="cls-1" d="M283.92,470.4l-.05,0-14,9.81c3.8,5.5,11.29,3.08,14.5,1.68l.75-.6,12.77-10.41C291.75,467.42,285.37,469.78,283.92,470.4Z"/><path id="_Path_35" data-name="&lt;Path&gt;" class="cls-1" d="M317.69,471.52l-12,12.1c4.8,4.8,11.86.89,14.69-1l.58-.67,10.82-12.59C324.55,466.82,318.38,471,317.69,471.52Z"/><path id="_Path_36" data-name="&lt;Path&gt;" class="cls-1" d="M383.63,454.46l-.21.46-7.21,15.73c6.28,2.77,11.61-3.74,13.51-6.49l.22-.6,5.79-15.8C389.08,448,384.88,452.83,383.63,454.46Z"/><path id="_Path_37" data-name="&lt;Path&gt;" class="cls-1" d="M301,471.6l-.22.19-13,11c4.44,5.22,11.87,1.82,14.77.18l.54-.52,11.9-11.56C308.58,468,302.5,470.78,301,471.6Z"/><path id="_Path_38" data-name="&lt;Path&gt;" class="cls-1" d="M470.46,389.3c-3.06-.4-6.14-.77-9.22-1.14,0,.12,0,.27-.05.37l0,.35,1.63,17.37c6.59-.86,8-8.93,8.36-12.45l-.15-.9Z"/><path id="_Path_39" data-name="&lt;Path&gt;" class="cls-1" d="M267,467.65,252.29,476c3.5,6.08,11.53,4,14.64,3l.56-.38,13.64-9.29C274.82,465,267.77,467.37,267,467.65Z"/><path id="_Path_40" data-name="&lt;Path&gt;" class="cls-1" d="M458.93,390.86c-6,3.29-7.72,9.72-8.1,11.59v.34l.09,17.4c6.78-.19,8.88-8.43,9.46-11.8l-.06-.74Z"/><path id="_Path_41" data-name="&lt;Path&gt;" class="cls-1" d="M473.23,389.67l.29,1.58a7.61,7.61,0,0,0,2.63-1.18Z"/><path id="_Path_42" data-name="&lt;Path&gt;" class="cls-1" d="M439.23,415.75v.14L437.85,433c6.87.36,9.64-7.85,10.45-11.05v-.59l.08-16.79C441.42,407.55,439.43,414.92,439.23,415.75Z"/><path id="_Path_43" data-name="&lt;Path&gt;" class="cls-1" d="M398.5,447.09v0l-5.71,16.31c6.54,2.28,11.33-5,12.91-7.86l.14-.53,4.4-16.17C402.74,439.86,398.93,446.33,398.5,447.09Z"/><path id="_Path_44" data-name="&lt;Path&gt;" class="cls-1" d="M413.13,437.52l-.08.32-4.42,16.8c6.45,1.6,10.54-5.32,12.06-8.53l.18-1L424,428.6C417.31,430,414,435.79,413.13,437.52Z"/><path id="_Path_45" data-name="&lt;Path&gt;" class="cls-1" d="M426.61,427.44l-2.85,17c6.69.93,10.11-6.59,11.26-9.81l.08-.78,1.63-16.82C429.56,419.44,426.91,426.56,426.61,427.44Z"/><path id="_Path_46" data-name="&lt;Path&gt;" class="cls-1" d="M143.34,177.11c6.3-4.26,6.93-11.86,7-12.81l-1.79-17.2c-6.82,1-8,9.59-8.23,12.85l.1.57Z"/><path id="_Path_47" data-name="&lt;Path&gt;" class="cls-1" d="M108.26,245.92l9.65,13.63c3.62-6.23,1.57-12.91,1-14.41l0,0L110,230.24c-5.76,3.94-3.18,12.32-2,15.3Z"/><path id="_Path_48" data-name="&lt;Path&gt;" class="cls-1" d="M111.72,227.82l8.37,14.47c4.42-6.3,2.47-13.65,2.22-14.53l-7.57-15.46c-5.85,3.24-4.39,11.33-3.48,14.71Z"/><path id="_Path_49" data-name="&lt;Path&gt;" class="cls-1" d="M106.49,264.31l5.87,7c2.11-.4,4.23-.79,6.34-1.18a19.7,19.7,0,0,0-1.49-7.21l-.3-.4-10.07-14c-5.36,4.4-2.26,12.32-.78,15.34Z"/><path id="_Path_50" data-name="&lt;Path&gt;" class="cls-1" d="M123.14,192.85l5.72,15.79c5.48-5.34,4.81-13,4.7-13.89l-4.72-16.65c-6.37,2.12-6.35,10.33-6,13.87Z"/><path id="_Path_51" data-name="&lt;Path&gt;" class="cls-1" d="M135.43,192.51c5.91-4.81,5.91-12.38,5.88-13.32l-3.25-17c-6.62,1.47-7.21,9.87-7.17,13.34l.2.75Z"/><path id="_Path_52" data-name="&lt;Path&gt;" class="cls-1" d="M155.14,394.11l-.29-.07-16.52-3.71c-1.31,7,6.06,10.83,9.12,12.12l.65.09,16.22,2.31C162.53,398.07,156.82,394.91,155.14,394.11Z"/><path id="_Path_53" data-name="&lt;Path&gt;" class="cls-1" d="M116.62,210.07l7.11,15.15c4.94-5.79,3.66-13.23,3.48-14.18L121,194.91c-6.19,2.74-5.34,11.1-4.72,14.47Z"/><path id="_Path_54" data-name="&lt;Path&gt;" class="cls-1" d="M234.89,457.3l-.3.1-16,5.51c2.32,6.61,10.6,6.07,13.86,5.58l.61-.26,15.06-6.54C243.22,456.76,236.7,457.09,234.89,457.3Z"/><path id="_Path_55" data-name="&lt;Path&gt;" class="cls-1" d="M219.16,450.06l-16.39,4c1.81,6.88,10.33,7,13.5,6.76l.46-.15,15.48-5.18C227.49,449.83,220.35,450,219.16,450.06Z"/><path id="_Path_56" data-name="&lt;Path&gt;" class="cls-1" d="M250.52,463.3l-15.37,7c2.89,6.24,10.83,5.09,14.12,4.32l.75-.42,14.43-7.88C258.55,461.36,251.3,463.09,250.52,463.3Z"/><path id="_Path_57" data-name="&lt;Path&gt;" class="cls-1" d="M165.59,407.51l-16.71-2.1c-.64,6.9,6.8,10.1,10,11.16l.83,0,16.27.79C173.38,410.1,166.44,407.78,165.59,407.51Z"/><path id="_Path_58" data-name="&lt;Path&gt;" class="cls-1" d="M204.42,441.29l-16.67,2.52c1.19,7,9.41,7.94,12.7,8.05l.64-.15,16-3.69C212.72,441.73,205.38,441.32,204.42,441.29Z"/><path id="_Path_59" data-name="&lt;Path&gt;" class="cls-1" d="M190.5,431.27l-16.76,1c.59,7.13,8.92,8.76,12.06,9.12l.48-.07,16.22-2.24C198.69,432.4,191.38,431.37,190.5,431.27Z"/><path id="_Path_60" data-name="&lt;Path&gt;" class="cls-1" d="M177.94,420l-.32,0-16.87-.59c0,6.81,7.4,9.36,10.77,10.16l1,0,16.29-.64C185.91,422.53,179.73,420.49,177.94,420Z"/></g></g><g id="banner"><g id="banner_Grouped"><path id="left_Wing" class="cls-2" d="M66.82,399c-3.18-29.73-6.36-43-9.47-72.74C37.5,332,18.32,338.48,0,345.56l38.17,22.52-1.8,4.13c-8,18.45-16.18,37.12-24.34,55.63a776.4,776.4,0,0,1,76.73-19.13L71.2,404.87l-1.84-.41-.93.23,0-.44-1-.23Z"/><path id="left_Under" class="cls-2" d="M126.23,395c-10.69,2-28.53,4.16-38.83,6.5,11.06,2.4,29.44,4.79,40.51,7.12Z"/><path id="banner_Main" class="cls-2" d="M72.09,398.11C141.15,381,220.89,371.6,306,371.58S470.85,381,539.91,398.11c4.2-39.23,8.33-61.65,12.39-100.89C478.62,273.8,395,260.81,306,260.8s-172.62,13-246.3,36.42C63.76,336.46,67.89,358.87,72.09,398.11Z"/><path id="right_Wing" class="cls-2" d="M540.81,404.87l-17.57,3.84A775.77,775.77,0,0,1,600,427.84c-8.15-18.49-16.32-37.16-24.35-55.63l-1.79-4.13L612,345.56c-18.32-7.08-37.49-13.51-57.34-19.26-3.1,29.69-6.28,43-9.47,72.74l-.53,5-1,.23,0,.44-.92-.23Z"/><path id="right_Under" class="cls-2" d="M484.75,408.58c11.07-2.33,28.8-4.72,39.85-7.12-10.3-2.33-27.47-4.5-38.16-6.5Z"/></g></g><g id="hat_logo"><path id="hat_base" class="cls-3" d="M481.55,320c-12.4-9.76-60.29-49.82-71-56.55,2.6-1.08.7-5.06-2.59-11.51-3.89-6.77-5.86-16.48-6.62-23.33-1.27-11.83-5.82-20.41-7.49-24.23-.3-.63-7.9-17.1-14.59-28-3.43-5.71-8.2-12.58-15.21-17.36-4.25-3.58-19.24-13.12-28.53-17-10.56-3.64-15.6-4-23.28-3.73a75.63,75.63,0,0,1-20.59-.5c-5.75-.8-15.58-.38-20.91.44a34.5,34.5,0,0,0-4.47.73c-2.2-1.78-7.76-2.75-12.88-1.32-6.32,2.15-6.36,5-5.5,7.12a69.77,69.77,0,0,1-15.52,2.75c-2.38.34-4.41.69-6.19,1l-.78.13a6.68,6.68,0,0,0-1.55.38,60,60,0,0,0-10.5,3.56c-4.25,2.47-9.46,6-15.54,15.53a47.77,47.77,0,0,1-8.89,8.81c-5.11,4.27-13.53,15-16.63,18.93-12.78,18.41-13.13,32.13-13.9,36.38-2.71,18.19-1.51,27.78-.9,33.53,1.33,14.06,1.95,17.22,4.31,25.66,1.74,7.83,3.25,16.38,3.09,21.6.25,12.42,8.24,13.7,14,13.09,6.75-.73,26.35-1.25,33.85-3.77l.46.13c5.07,8.07,19.33,30.07,20.56,32A68.33,68.33,0,0,0,249,371l.09.06c.63.48,1.26.95,1.92,1.41l.4.29c.6.42,1.22.82,1.84,1.23l.65.4c.57.36,1.14.71,1.74,1l.94.52c.53.29,1.05.58,1.6.85s.84.42,1.27.62.93.45,1.4.66,1.13.48,1.7.71l1.12.45c.77.29,1.57.56,2.38.82l.59.2c1,.33,2.09.62,3.17.89,10.39,2.31,29.71,3.09,52.36-11.14,10.1-7,30.39-21.78,49.6-32.3,10.27-5.53,26.39-13.85,37.53-16.79,8.53-2.14,28.83-6.54,45.92-2.77,9.36,1.93,15.2,5.14,19.38,8.17,3.62,2.88,7,3,8.91,1.83a3.66,3.66,0,0,0,1.1-3.26c-.19-1.4-1.08-3.08-3.09-4.89"/><path id="hat_Outline" class="cls-4" d="M481.55,320c-12.4-9.76-60.29-49.82-71-56.55,2.6-1.08.7-5.06-2.59-11.51-3.89-6.77-5.86-16.48-6.62-23.33-1.27-11.83-5.82-20.41-7.49-24.23-.3-.63-7.9-17.1-14.59-28-3.43-5.71-8.2-12.58-15.21-17.36-4.25-3.58-19.24-13.12-28.53-17-10.56-3.64-15.6-4-23.28-3.73a75.63,75.63,0,0,1-20.59-.5c-5.75-.8-15.58-.38-20.91.44a34.5,34.5,0,0,0-4.47.73c-2.2-1.78-7.76-2.75-12.88-1.32-6.32,2.15-6.36,5-5.5,7.12a69.77,69.77,0,0,1-15.52,2.75c-2.38.34-4.41.69-6.19,1l-.78.13a6.68,6.68,0,0,0-1.55.38,60,60,0,0,0-10.5,3.56c-4.25,2.47-9.46,6-15.54,15.53a47.77,47.77,0,0,1-8.89,8.81c-5.11,4.27-13.53,15-16.63,18.93-12.78,18.41-13.13,32.13-13.9,36.38-2.71,18.19-1.51,27.78-.9,33.53,1.33,14.06,1.95,17.22,4.31,25.66,1.74,7.83,3.25,16.38,3.09,21.6.25,12.42,8.24,13.7,14,13.09,6.75-.73,26.35-1.25,33.85-3.77l.46.13c5.07,8.07,19.33,30.07,20.56,32A68.33,68.33,0,0,0,249,371l.09.06c.63.48,1.26.95,1.92,1.41l.4.29c.6.42,1.22.82,1.84,1.23l.65.4c.57.36,1.14.71,1.74,1l.94.52c.53.29,1.05.58,1.6.85s.84.42,1.27.62.93.45,1.4.66,1.13.48,1.7.71l1.12.45c.77.29,1.57.56,2.38.82l.59.2c1,.33,2.09.62,3.17.89,10.39,2.31,29.71,3.09,52.36-11.14,10.1-7,30.39-21.78,49.6-32.3,10.27-5.53,26.39-13.85,37.53-16.79,8.53-2.14,28.83-6.54,45.92-2.77,9.36,1.93,15.2,5.14,19.38,8.17,3.62,2.88,7,3,8.91,1.83a3.66,3.66,0,0,0,1.1-3.26C484.46,323.46,483.57,321.78,481.55,320Z"/><path id="hat_Coloring" class="cls-5" d="M212.77,322.36c-7.5,2.52-27.1,3-33.85,3.77-5.79.61-13.77-.68-14-13.09.16-5.23-1.35-13.77-3.09-21.6-2.36-8.44-3-11.61-4.31-25.66-.61-5.75-1.81-15.34.9-33.53.77-4.25,1.11-18,13.89-36.38,3.1-3.89,11.52-14.66,16.63-18.93a47.81,47.81,0,0,0,8.89-8.81c6.08-9.55,11.29-13.05,15.54-15.53,4.75-2,8.57-3.61,19-5.12,9.71-.52,18-3.42,23.75-5.42,8.66-2.84,10.22-3.38,14.61-3.86,5.33-.82,15.16-1.24,20.91-.44a75.94,75.94,0,0,0,20.59.5c7.68-.24,12.72.09,23.28,3.73,9.29,3.91,24.28,13.46,28.53,17,7,4.78,11.78,11.65,15.21,17.36,6.69,10.87,14.29,27.34,14.59,28,1.67,3.81,6.22,12.4,7.49,24.23.76,6.85,2.73,16.56,6.62,23.32,3.32,6.51,5.23,10.51,2.53,11.54l-2.47,3.3-149.5,57.49L227,325.92Z"/><path id="bill" class="cls-6" d="M212.77,322.36c3.42,5.6,19.68,30,21,32.08,6.46,9.9,18.45,22.42,36,26.69,10.39,2.31,29.71,3.09,52.36-11.15,10.09-7,30.4-21.78,49.6-32.3,10.28-5.52,26.39-13.85,37.53-16.79,8.53-2.14,28.83-6.54,45.92-2.77,9.72,2,15.2,5.14,19.38,8.16,3.62,2.88,7,3,8.92,1.83,1.56-1.44,2-4.53-2-8.14-12.77-10.06-63.25-52.3-71.89-57.09-11.53-4.4-28.49-6.28-56.77.2-15.42,3.51-32.36,7.46-63.72,22-19.59,9.23-44.37,22.07-55,28.42-10.76,6-12.4,6.73-21.42,8.88"/><path id="bill_Highlight" class="cls-7" d="M474.63,326.28c3.62,2.88,7,3,8.92,1.83,1.56-1.45,2-4.54-2-8.14-.25-.2-.35-.92-.64-1.14h-.3c-12.07-10.49-28.32-12.26-42.91-11.66-35.93.6-69.13,22.47-84.5,33.78-10.25,6.53-25.27,19.3-42.48,28.44-33.06,17.86-57.12,5.28-61.67,1.51l0,.08a55.63,55.63,0,0,0,20.81,10.15c10.39,2.31,29.71,3.09,52.36-11.15,10.1-7,30.4-21.78,49.6-32.3,10.28-5.52,26.39-13.85,37.53-16.79,8.53-2.15,28.66-6.29,45.75-2.52a56.64,56.64,0,0,1,19.55,7.91"/><path id="white_Lines" class="cls-8" d="M479.36,316c-22.26-9.72-33.23-9.1-41.67-8.75-35.93.6-69.13,22.47-84.5,33.77-10.26,6.52-25.27,19.29-42.48,28.43-20.66,11.17-39.32,10.21-50.74,6.63-13.19-4.48-24.59-17.41-46-53.22"/><g id="inner_lines"><path id="side_Hat_Lines" class="cls-9" d="M227.19,147c-7.71,1.7-21.66,13.36-24.69,27.22-1.94,8.78-5.23,20.66-5.14,35.22.16,8.16,1,19.37,7.31,34.89,3.21,8.21,14.91,40,16.39,45.79,1.71,5.82,3,12.38,3,17-1.11,5.86,2.41,9.59,6.07,10.23"/><path id="top_Bill_Lines" class="cls-10" d="M412.13,263c-14.49-6.21-30.49-6.1-58.78.38-15.42,3.51-32.35,7.46-63.71,22-19.58,9.23-44.37,22.07-55,28.42-13.14,7.37-17,8-24.17,10.16"/></g><path id="hat_F" class="cls-11" d="M278.88,176.23q-6.35,1.94-12.72,4l5,14.67q10-3.15,19.95-6.06,2.07,6.16,4.13,12.32-9.91,2.85-19.92,6l5,14.73,4.13-1.25q2.07,6.12,4.13,12.25c-7.64,2.25-15.32,4.62-23,7.09l-4.14-12.13,4.19-1.36q-7.08-20.74-14.14-41.36l-4.17,1.44-4.11-12c15.29-5.4,30.84-10.36,46.18-14.88q3,8.82,5.92,17.65-7.28,2.1-14.62,4.32l-1.81-5.35"/><path id="hat_S" class="cls-11" d="M352.59,238.59q-3.5,4.17-7,8.43c-8.56,1.47-17.25,3.35-25.92,5.61q-6.08-2.06-12.15-3.87l-3.76-10.11q7.49-2.4,15-4.39l1.9,5.17q7.61-2,15.2-3.52-2.6-7.27-5.21-14.49c-6.85,1.53-13.72,3.31-20.56,5.33q-6.07-1.88-12.1-3.5l-8.82-23.61q3.55-5,7.13-10c8.56-3,17.25-5.58,25.92-7.77q6,2.14,12,4.52,1.88,5.25,3.76,10.51-7.49,1.48-15,3.37l-1.89-5.18q-7.62,1.95-15.2,4.31,2.6,7,5.21,14c6.88-2,13.79-3.77,20.67-5.28q6,2.36,12,5,4.44,12.63,8.84,25.41"/></g><g id="lettering"><path id="F" class="cls-12" d="M235.66,57.35V44.74h3V13.83h-3V1.14h36.7V16.07H261.15V13.83h-8.78V22.9h2V20.73h11.28v17H254.36V35.59h-2v9.15h5.78V57.35ZM256.93,56V46h-5.78V34.22h4.43v2.25h8.85V22.1h-8.85v2.25h-4.43V12.46h11.14v2.25h8.85V2.5H236.87v10h2.93V46h-2.93V56Zm-18.49-1.77V47.79h2.93V10.69h-2.93V4.27h31.2v8.67h-5.78V10.69H249.65V26h7.5V23.78h5.71V34.7h-5.71V32.45h-7.5V47.79h5.71v6.42Z"/><path id="A" class="cls-12" d="M269.79,57.35V44.74h3l9.14-30.92h-2.21V1.14h26.56V13.83h-2.5l9.14,30.92h2.93V57.35H296.71V44.74h1.71l-.79-2.65h-9.57l-.86,2.65h1.71V57.35ZM287.71,56V46h-1.86L287,40.81H298.7L299.78,46h-1.86V56H314.7V46h-2.86l-9.57-33.56h2.78V2.5H280.93v10h2.43L273.78,46H271V56Zm-15.14-1.77V47.79h2.14l10.92-37.1H282.5V4.27h21.06v6.42h-3.5L311,47.79h2.14v6.42H299.49V47.79h2.71L299.63,39H286l-2.57,8.75h2.71v6.42ZM298.2,34.38l-5.36-18.31-5.5,18.31Zm-8.43-1.61,3.07-11.16,3,11.16Zm4.71-1.45L292.85,26l-1.64,5.38Z"/><path id="N" class="cls-12" d="M318.41,57.35V44.74h3V13.83h-3V1.14h16.21L348.4,26.91V13.83h-3V1.14h19.71V13.83h-3V44.74h3V57.35H348.61L335.12,32.21V44.74h3V57.35Zm18.49-1.29V46h-3V27.4l15.28,28.67h14.71V46h-3V12.46h3V2.5H346.62v10h3V31.65L334,2.5H319.63v10h2.93V46h-2.93v10ZM321.2,54.22V47.79h2.93V10.69H321.2V4.27h11.5L351.19,38.8V10.69h-3.07V4.27H362.4v6.42h-3.07v37.1h3.07v6.42H350.47L332.41,20.33V47.79h3v6.42Z"/><path id="S" class="cls-12" d="M188.11,553.94V543.11h15v5.34l1.88,1.86h7.83l1.8-1.78v-5.58l-1.72-1.7H196.89l-8.77-9.06V515.46l8.77-9.06H221l8.77,9.06v11.16H214.67V521l-1.72-1.78H204.8L203.15,521v5.74l1.72,1.78H221l8.77,9.06v16.41L221,563H196.89Zm9.16,7.68h23.34l7.83-8V537.77l-7.75-7.92H204.56L201.9,527v-6.39l2.66-2.83h8.7l2.74,2.83v4.61h12.46v-9.46l-7.75-8H197.2l-7.76,8v16.09l7.76,8h16.06l2.74,2.75v6.15l-2.82,2.83h-8.54l-2.74-2.83v-4.29H189.44v9.14Zm-6.11-9.22v-6.23h9v3.72l3.37,3.48h10.81l3.37-3.56v-8.09l-3.45-3.64H198.45l-7.29-7.52V517l7.21-7.44h21.15l7.29,7.6v6.39h-9.09v-3.88L214.28,516H203.54l-3.37,3.48v8.57l3.37,3.48h16l7.29,7.6v13.26l-7.13,7.44H198.29Z"/><path id="P" class="cls-12" d="M233.08,563V550.31h3.29V519.17h-3.29V506.4H267l8.77,9.06v17.06L267,541.57H251.41v8.73h3.29V563Zm20.29-1.37v-10h-3.29V540.2h16.53l7.83-8.17V515.94l-8-8.25h-32V517.8h3.21v33.8h-3.21v10Zm-17.24-1.78v-6.47h3.21V516h-3.21v-6.47h29.38l7.21,7.44v14l-7.21,7.52H248.43v14.88h3.29v6.47ZM260.26,532l3.45-3.56V519.5L260.34,516H248.43V532Zm-10.18-1.78V517.8h9.24l2.74,2.83v6.63l-2.74,2.91ZM259,528.8l1.72-1.78V521L259,519.17h-7.6v9.62Z"/><path id="O" class="cls-12" d="M282.9,553.94V515.46l8.77-9.06H315.8l8.77,9.06v38.49L315.8,563H291.67Zm9.24,7.6h23.27l7.83-8.09V516l-8-8.25H292.14l-7.83,8.09v37.6ZM286,552.41V517l7.21-7.44h21.23L321.6,517v35.42l-7.21,7.44H293.16Zm12.38,1h10.81l3.37-3.48V519.58L309.06,516H298.33L295,519.5v30.4Zm-1.72-4.53v-28.3l2.74-2.83h8.77l2.74,2.83v28.3l-2.74,2.83h-8.77Zm3.13,1.46h8l1.72-1.78V521l-1.72-1.78h-8.07L297.94,521v27.49Z"/><path id="R" class="cls-12" d="M328.41,563V550.31h3.29V519.17h-3.29V506.4h33.92l8.77,9.06V530l-3.6,3.64,3.6,3.72v12.94h3.29V563H356.07V541.73l-1.72-1.7h-7.6v10.27H350V563Zm20.29-1.37v-10h-3.29V538.66H355l2.43,2.51v20.46H373v-10h-3.21V537.93l-4.15-4.37,4.15-4.37V516l-8-8.25h-32v10H333v33.8h-3.21v10Zm-17.24-1.78v-6.47h3.21V516h-3.21v-6.47h29.46l7.13,7.44v11.4l-4.93,5.18,4.93,5.17v14.64h3.29v6.47H359V540.44L355.68,537H343.77v16.42h3.29v6.47Zm24.13-29.35,3.45-3.56v-7.52l-3.37-3.4H343.77v14.47Zm-10.19-1.78V517.8h9.17l2.82,2.91v5.18l-2.82,2.83Zm8.85-1.37,1.8-1.78V521l-1.8-1.86h-7.52v8.17Z"/><path id="T" class="cls-12" d="M378.24,522.49V506.4h46.3v16.09H412.16v-3.31h-3.21v31.13h3.21V563H390.54V550.31h3.29V519.17h-3.29v3.31Zm11-1.29v-3.4h6v33.8h-3.29v10h19v-10h-3.29V517.8h6v3.4h9.64V507.77H379.57V521.2Zm-7.91-1.78v-9.86h40.27v9.86h-6.34V516H406v37.36h3.21v6.47H393.59v-6.47h3.29V516h-9.4v3.4Z"/><path id="O-2" data-name="O" class="cls-12" d="M77.92,351.69V322.23l6.72-6.93H103.1l6.72,6.93v29.46l-6.72,6.93H84.63ZM85,357.5H102.8l6-6.19V322.66l-6.12-6.31H85l-6,6.19v28.78Zm-4.74-7V323.4l5.52-5.69H102l5.52,5.69v27.11L102,356.2H85.77Zm9.47.74H98l2.58-2.66V325.38l-2.64-2.72H89.73l-2.58,2.66v23.27Zm-1.32-3.47V326.12l2.1-2.17h6.72l2.1,2.17v21.66L97.23,350H90.51Zm2.4,1.11h6.12l1.32-1.36V326.43l-1.32-1.36H90.75l-1.32,1.36v21Z"/><path id="F-2" data-name="F" class="cls-12" d="M112.34,358.62V348.9h2.52V325.07h-2.52v-9.78h30.82v11.51h-9.41v-1.73h-7.38v7H128V330.4h9.47v13.12H128v-1.67h-1.68v7.06h4.86v9.72Zm17.87-1.05v-7.67h-4.86v-9.1h3.72v1.73h7.44V331.45h-7.44v1.73h-3.72V324h9.35v1.73h7.44v-9.41H113.36V324h2.46v25.87h-2.46v7.67Zm-15.53-1.36v-5h2.46V322.66h-2.46v-5h26.2v6.68H136v-1.73H124.09v11.82h6.3v-1.73h4.8v8.42h-4.8v-1.73h-6.3v11.82h4.8v5Z"/><path id="T-2" data-name="T" class="cls-12" d="M464.79,331.55v-8.91h25.64v8.91h-6.85v-1.84h-1.78V347h1.78v7h-12v-7h1.82V329.71H471.6v1.84Zm6.07-.72V329h3.3v18.72h-1.82v5.55h10.54v-5.55h-1.82V329h3.3v1.88h5.34V323.4H465.52v7.43Zm-4.38-1v-5.46h22.3v5.46h-3.51V328h-5.12v20.69h1.78v3.58h-8.63v-3.58h1.82V328h-5.21v1.88Z"/><path id="H" class="cls-12" d="M492.55,354v-7h1.82V329.71h-1.82v-7.07h12v7.07H502.7V334h5.94v-4.3h-1.86v-7.07h12v7.07H517V347h1.78v7h-12v-7h1.86v-5.24H502.7V347h1.82v7Zm11.23-.76v-5.55H502V341h7.42v6.72h-1.82v5.55H518.1v-5.55h-1.87V329h1.87V323.4H507.56V329h1.82v5.82H502V329h1.82V323.4h-10.5V329h1.78v18.72h-1.78v5.55Zm-9.54-1v-3.58H496V328h-1.78v-3.58h8.63V328H501v7.75h9.24V328h-1.82v-3.58h8.68V328h-1.82v20.69h1.82v3.58h-8.68v-3.58h1.82V340H501v8.69h1.82v3.58Z"/><path id="E" class="cls-12" d="M521.52,354v-7h1.82V329.71h-1.82v-7.07h22.3V331H537v-1.25h-5.34v5.06h1.22v-1.21h6.85v9.49h-6.85v-1.21h-1.22V347H537v-1.3h6.81V354Zm21.56-.76v-6.81H537.7v1.25h-6.77V341h2.69v1.25H539v-8h-5.38v1.25h-2.69V329h6.77v1.25h5.38V323.4H522.26V329H524v18.72h-1.78v5.55Zm-19.87-1v-3.58H525V328h-1.78v-3.58h19v4.84h-3.51V328H530v8.55h4.55v-1.25h3.47v6.09h-3.47V340.1H530v8.55h8.63V347.4h3.51v4.84Z"/></g></svg>